<svg width="63" height="57" viewBox="0 0 63 57" fill="none" xmlns="http://www.w3.org/2000/svg">
<path d="M60.2489 1.10065C57.4061 -0.430135 54.2352 2.52209 52.3763 4.27155C48.1122 8.42653 44.5039 13.2376 40.4581 17.6112C35.9751 22.4222 31.8201 27.2333 27.2278 31.9351C24.6036 34.5593 21.7607 37.4022 20.0113 40.6824C16.075 36.8553 12.6854 32.7003 8.31173 29.3109C5.14082 26.9054 -0.107568 25.156 0.00177313 30.9511C0.220456 38.4958 6.89029 46.5871 11.8107 51.7259C13.8881 53.9128 16.6217 56.2089 19.7926 56.3183C23.6195 56.537 27.5558 51.9446 29.852 49.4298C33.8978 45.0561 37.1781 40.1356 40.8955 35.6527C45.7065 29.7483 50.6269 23.953 55.3286 17.9392C58.2808 14.2216 67.5748 5.03676 60.2489 1.10065ZM4.81262 30.5137C4.70328 30.5137 4.59394 30.5137 4.37525 30.6229C3.93789 30.5137 3.60986 30.4042 3.1725 30.1855C3.50052 29.9668 4.04723 30.0761 4.81262 30.5137Z" fill="#434446"/>
</svg>
