<svg width="22" height="22" viewBox="0 0 22 22" fill="none" xmlns="http://www.w3.org/2000/svg">
<path d="M18.7766 3.22029C14.4802 -1.07483 7.5154 -1.0738 3.22029 3.22265C-1.07483 7.5191 -1.0738 14.4839 3.22265 18.779C7.51909 23.0741 14.4839 23.0731 18.779 18.7766C20.8418 16.7132 22.0003 13.9149 21.9996 10.9973C21.999 8.08014 20.8397 5.2827 18.7766 3.22029ZM16.6588 15.3225C16.6583 15.323 16.6578 15.3235 16.6573 15.324V15.3203L16.1 15.874C15.3792 16.6039 14.3294 16.9042 13.3316 16.666C12.3264 16.3969 11.3707 15.9686 10.501 15.3973C9.69288 14.8809 8.94402 14.2772 8.26795 13.597C7.6459 12.9795 7.08704 12.3014 6.59961 11.573C6.06645 10.7891 5.64445 9.93527 5.34561 9.03563C5.00302 7.97878 5.28691 6.81909 6.07895 6.03998L6.73161 5.38733C6.91306 5.20506 7.20791 5.20441 7.39015 5.38587C7.39062 5.38634 7.39113 5.38681 7.39161 5.38733L9.45226 7.44798C9.63453 7.62944 9.63518 7.92429 9.45372 8.10652C9.45325 8.10699 9.45278 8.10747 9.45226 8.10798L8.24226 9.31798C7.89507 9.66139 7.85142 10.2071 8.13961 10.6013C8.57724 11.2019 9.06154 11.7671 9.58795 12.2917C10.1749 12.8811 10.8129 13.4173 11.4946 13.894C11.8885 14.1688 12.4225 14.1224 12.7633 13.784L13.9329 12.596C14.1144 12.4138 14.4092 12.4131 14.5914 12.5946C14.5919 12.595 14.5924 12.5955 14.5929 12.596L16.6573 14.664C16.8396 14.8454 16.8402 15.1402 16.6588 15.3225Z" fill="#434446"/>
</svg>
