<?xml version="1.0" standalone="no"?>
<!DOCTYPE svg PUBLIC "-//W3C//DTD SVG 20010904//EN"
 "http://www.w3.org/TR/2001/REC-SVG-20010904/DTD/svg10.dtd">
<svg version="1.0" xmlns="http://www.w3.org/2000/svg"
 width="196.000000pt" height="196.000000pt" viewBox="0 0 196.000000 196.000000"
 preserveAspectRatio="xMidYMid meet">
<metadata>
Created by potrace 1.14, written by Peter Selinger 2001-2017
</metadata>
<g transform="translate(0.000000,196.000000) scale(0.100000,-0.100000)"
fill="#000000" stroke="none">
<path d="M953 1838 c-9 -10 -48 -35 -85 -55 -50 -26 -75 -46 -95 -79 -29 -46
-41 -51 -73 -34 -16 9 -22 5 -35 -20 -8 -16 -19 -30 -23 -30 -4 1 -27 5 -51 9
-32 7 -60 5 -100 -6 -31 -9 -76 -19 -100 -22 -41 -5 -45 -9 -47 -36 -1 -16
-10 -59 -19 -94 -21 -83 -21 -86 -3 -161 2 -8 -10 -21 -27 -30 -28 -14 -29
-17 -19 -39 16 -31 10 -43 -29 -64 -29 -16 -97 -100 -97 -121 0 -4 -14 -26
-31 -47 l-30 -38 21 -23 c11 -13 37 -51 56 -86 25 -45 48 -71 80 -91 24 -15
43 -29 41 -32 -2 -2 -7 -16 -11 -31 -5 -23 -2 -30 24 -43 26 -13 28 -18 20
-41 -15 -38 -12 -110 5 -152 9 -20 17 -56 18 -79 2 -40 4 -43 30 -43 16 0 60
-10 99 -21 66 -20 115 -21 163 -3 11 5 19 -2 28 -25 8 -22 16 -30 27 -25 44
19 55 15 82 -30 20 -34 42 -53 85 -75 32 -16 71 -42 87 -57 25 -24 30 -25 38
-11 5 9 38 33 74 53 70 39 119 83 129 115 7 21 25 22 65 5 11 -5 19 3 27 25
10 27 16 30 35 24 34 -12 147 -8 163 5 7 6 38 14 67 17 l53 5 2 37 c0 20 8 60
18 89 16 47 17 113 4 160 -2 8 10 21 26 30 28 16 29 19 19 41 -14 27 -8 51 11
51 21 0 80 63 103 111 13 26 34 59 48 74 25 27 25 27 6 49 -11 11 -33 45 -48
75 -32 59 -65 96 -105 117 -21 10 -25 19 -21 39 2 14 9 28 14 31 5 3 -6 14
-24 23 -20 10 -31 23 -29 31 14 54 11 120 -7 174 -11 33 -19 72 -17 87 4 25 1
27 -33 27 -21 0 -51 6 -67 12 -60 24 -117 29 -172 16 -29 -7 -33 -4 -48 24
-12 24 -20 29 -28 21 -19 -19 -57 -13 -66 12 -15 35 -61 78 -107 98 -23 11
-56 32 -73 48 -30 28 -31 28 -48 9z"/>
</g>
</svg>
